<svg width="14" height="16" viewBox="0 0 14 16" fill="none" xmlns="http://www.w3.org/2000/svg">
<g id="lock-solid 1" clip-path="url(#clip0_442_3604)">
<path id="Vector" d="M4.5 4.50098V6.00098H9.5V4.50098C9.5 3.11973 8.38125 2.00098 7 2.00098C5.61875 2.00098 4.5 3.11973 4.5 4.50098ZM2.5 6.00098V4.50098C2.5 2.0166 4.51562 0.000976562 7 0.000976562C9.48438 0.000976562 11.5 2.0166 11.5 4.50098V6.00098H12C13.1031 6.00098 14 6.89785 14 8.00098V14.001C14 15.1041 13.1031 16.001 12 16.001H2C0.896875 16.001 0 15.1041 0 14.001V8.00098C0 6.89785 0.896875 6.00098 2 6.00098H2.5Z" fill="#757575"/>
</g>
<defs>
<clipPath id="clip0_442_3604">
<rect width="14" height="16" fill="white" transform="translate(0 0.000976562)"/>
</clipPath>
</defs>
</svg>
