<svg width="16" height="16" viewBox="0 0 16 16" fill="none" xmlns="http://www.w3.org/2000/svg">
<g id="envelope-solid 1">
<path id="Vector" d="M1.5 2.00098C0.671875 2.00098 0 2.67285 0 3.50098C0 3.97285 0.221875 4.4166 0.6 4.70098L7.4 9.80098C7.75625 10.0666 8.24375 10.0666 8.6 9.80098L15.4 4.70098C15.7781 4.4166 16 3.97285 16 3.50098C16 2.67285 15.3281 2.00098 14.5 2.00098H1.5ZM0 5.50098V12.001C0 13.1041 0.896875 14.001 2 14.001H14C15.1031 14.001 16 13.1041 16 12.001V5.50098L9.2 10.601C8.4875 11.1354 7.5125 11.1354 6.8 10.601L0 5.50098Z" fill="#757575"/>
</g>
</svg>
