<svg id="Layer_1" data-name="Layer 1" xmlns="http://www.w3.org/2000/svg" viewBox="0 0 48 48"><defs><style>.cls-1{fill:none;stroke:#3fb139;stroke-linecap:round;stroke-linejoin:round;stroke-width:0.82px;}.cls-2,.cls-4{fill:#3fb139;}.cls-3{fill:#fff;}.cls-4{font-size:5.76px;font-family:MyriadPro-Bold, Myriad Pro;font-weight:700;letter-spacing:-0.02em;}.cls-5{letter-spacing:-0.02em;}</style></defs><title>logo</title><polygon class="cls-1" points="17.4 11.38 9.48 13.44 12.93 25.15 27.05 27.91 33.93 25.15 38.06 13.44 17.4 11.38"/><line class="cls-1" x1="30.14" y1="16.2" x2="38.07" y2="13.44"/><polyline class="cls-1" points="27.05 27.91 30.14 16.2 9.48 13.44 7.76 7.93 15.34 6.21 17.4 11.38"/><line class="cls-1" x1="8.15" y1="8.78" x2="15.51" y2="7.07"/><polyline class="cls-1" points="12.88 25 13.79 28.43 26.01 31.35 32.55 28.25 27.18 27.91"/><line class="cls-1" x1="13.91" y1="28.45" x2="18.95" y2="26.33"/><ellipse class="cls-1" cx="13.96" cy="30.32" rx="1.55" ry="1.86" transform="translate(-16.66 17.03) rotate(-41.82)"/><ellipse class="cls-1" cx="25.67" cy="33.07" rx="1.55" ry="1.86" transform="translate(-15.51 25.54) rotate(-41.82)"/><ellipse class="cls-1" cx="32.9" cy="29.97" rx="1.55" ry="1.86" transform="translate(-11.61 29.57) rotate(-41.82)"/><line class="cls-1" x1="14.64" y1="14.13" x2="16.06" y2="25.77"/><line class="cls-1" x1="19.29" y1="14.75" x2="19.29" y2="26.4"/><line class="cls-1" x1="24.46" y1="15.44" x2="23.27" y2="27.17"/><line class="cls-1" x1="10.64" y1="17.39" x2="29.19" y2="19.81"/><line class="cls-1" x1="11.86" y1="21.52" x2="28.11" y2="23.9"/><line class="cls-1" x1="22.74" y1="11.91" x2="22.74" y2="15.21"/><line class="cls-1" x1="27.26" y1="12.36" x2="27.26" y2="15.81"/><line class="cls-1" x1="32.12" y1="12.85" x2="32.12" y2="15.34"/><line class="cls-1" x1="15.35" y1="11.91" x2="15.35" y2="13.96"/><line class="cls-1" x1="17.69" y1="11.41" x2="18.34" y2="14.63"/><line class="cls-1" x1="33.45" y1="15.05" x2="29.89" y2="26.77"/><line class="cls-1" x1="36.21" y1="14.09" x2="32.4" y2="25.77"/><line class="cls-1" x1="29.04" y1="20.38" x2="36.48" y2="17.93"/><line class="cls-1" x1="28" y1="24.32" x2="35.22" y2="21.52"/><path class="cls-2" d="M29,32.1a.29.29,0,0,1-.25-.15c-2.46-4.1-9.7-8.94-9.77-9a.3.3,0,0,1-.11-.38l1.57-3.66a.31.31,0,0,1,.28-.18h.08c2,.5,7,5.22,8.17,6.37C33.76,19,46.34,10.76,46.46,10.68a.28.28,0,0,1,.17,0,.3.3,0,0,1,.2.54C39,17.73,29.38,31.83,29.29,32a.33.33,0,0,1-.26.13Z"/><path class="cls-3" d="M46.63,10.94C38.67,17.59,29,31.79,29,31.79c-2.52-4.21-9.86-9.08-9.86-9.08l1.57-3.66c2.2.55,8.29,6.53,8.29,6.53,4.61-6.21,17.6-14.64,17.6-14.64m0-.62a.58.58,0,0,0-.33.1c-.52.34-12.41,8.09-17.34,14.24-1.58-1.52-6.08-5.71-8.07-6.21a.39.39,0,0,0-.15,0,.62.62,0,0,0-.57.37L18.6,22.46a.61.61,0,0,0,.23.76c.07.05,7.25,4.85,9.67,8.89a.61.61,0,0,0,.51.3h0a.61.61,0,0,0,.51-.27c.1-.14,9.68-14.2,17.49-20.73a.62.62,0,0,0,.1-.84.63.63,0,0,0-.5-.25Zm0,1.23h0Z"/><text class="cls-4" transform="translate(11.24 40.35)">S<tspan class="cls-5" x="2.97" y="0">hoppang</tspan></text></svg>