<?xml version="1.0" standalone="no"?>
<!DOCTYPE svg PUBLIC "-//W3C//DTD SVG 20010904//EN"
 "http://www.w3.org/TR/2001/REC-SVG-20010904/DTD/svg10.dtd">
<svg version="1.0" xmlns="http://www.w3.org/2000/svg"
 width="193.000000pt" height="193.000000pt" viewBox="0 0 193.000000 193.000000"
 preserveAspectRatio="xMidYMid meet">
<metadata>
Created by potrace 1.14, written by Peter Selinger 2001-2017
</metadata>
<g transform="translate(0.000000,193.000000) scale(0.100000,-0.100000)"
fill="#000000" stroke="none">
<path d="M465 1664 c-82 -19 -153 -38 -157 -42 -4 -4 6 -50 23 -102 41 -130
145 -482 180 -607 l28 -103 -29 -29 c-24 -23 -28 -34 -24 -62 11 -72 86 -109
138 -68 25 20 28 27 24 64 l-5 42 136 -34 c75 -18 147 -35 160 -38 32 -6 34
-10 22 -33 -19 -35 -12 -63 23 -98 39 -39 72 -43 110 -13 31 24 35 72 10 108
-13 19 -14 25 -4 31 9 6 23 -2 41 -21 32 -34 46 -31 77 17 l23 35 28 -30 c55
-59 141 -35 141 39 0 33 -33 78 -67 91 -24 9 -24 9 39 91 70 92 66 88 140 178
83 102 114 136 250 275 71 72 128 136 128 142 0 45 -80 0 -299 -164 -46 -35
-86 -62 -88 -60 -2 2 6 30 17 62 11 32 17 62 13 66 -5 4 -35 10 -68 14 -33 3
-78 8 -100 10 -22 3 -69 7 -105 10 -36 3 -78 8 -95 10 -16 3 -61 7 -100 10
-38 3 -88 7 -110 10 -22 2 -62 7 -90 10 -116 12 -150 17 -155 21 -3 3 -23 48
-45 101 -22 53 -44 98 -50 99 -5 1 -77 -13 -160 -32z m194 -117 c13 -32 22
-59 20 -61 -2 -1 -66 -18 -141 -38 l-137 -36 -24 77 -24 76 131 31 c95 23 134
28 142 20 5 -6 21 -37 33 -69z m53 -142 c3 -39 2 -40 -27 -36 -41 4 -45 8 -45
41 0 22 6 30 28 38 34 12 39 7 44 -43z m113 40 c38 -3 70 -7 71 -8 1 -1 4 -22
5 -47 3 -42 2 -45 -21 -44 -56 3 -113 13 -120 21 -11 12 -24 97 -14 90 5 -3
40 -8 79 -12z m-215 -34 c0 -28 -10 -31 -66 -22 -48 8 -48 10 11 29 45 15 55
14 55 -7z m460 8 c11 -5 16 -21 15 -51 l-1 -43 -64 3 c-36 1 -69 7 -74 12 -5
5 -10 28 -11 51 l-2 41 61 -3 c34 -2 68 -6 76 -10z m152 -14 l57 -6 -1 -38 c0
-34 -4 -39 -34 -50 -20 -7 -51 -10 -78 -6 -40 6 -44 10 -48 38 -6 57 1 76 25
72 12 -2 48 -6 79 -10z m187 -17 c23 -1 41 -2 41 -4 0 -3 -122 -44 -132 -44
-4 0 -8 14 -8 30 0 28 2 30 29 25 17 -3 48 -6 70 -7z m-866 -34 c20 -3 38 -11
38 -17 5 -52 10 -84 14 -95 4 -11 -48 -10 -115 4 -8 1 -18 3 -22 3 -3 1 -15
28 -27 62 l-20 61 47 -6 c26 -4 64 -9 85 -12z m955 -6 c-3 -7 -13 -37 -22 -65
-16 -49 -31 -71 -42 -61 -4 5 29 109 41 128 9 14 28 12 23 -2z m-733 -81 l0
-58 -60 6 c-33 4 -64 11 -69 16 -5 4 -11 32 -14 62 l-4 53 73 -11 74 -11 0
-57z m661 61 c-7 -45 -41 -120 -56 -128 -43 -23 -49 -14 -30 48 14 47 23 60
51 74 41 21 38 21 35 6z m-508 -24 l52 -7 -6 -56 c-3 -31 -6 -57 -7 -57 -7 -5
-160 23 -159 29 1 4 2 30 2 58 l0 50 33 -5 c17 -3 56 -8 85 -12z m385 -64
c-18 -65 -27 -75 -74 -88 l-36 -10 18 60 c10 33 20 62 23 65 6 6 80 32 83 29
1 -1 -5 -26 -14 -56z m-153 33 c19 -3 37 -6 39 -8 2 -2 -3 -27 -10 -55 l-13
-52 -61 6 c-33 4 -69 8 -80 10 -11 3 -24 5 -28 5 -4 1 -6 13 -3 29 2 15 5 40
5 55 l1 29 58 -7 c31 -3 73 -9 92 -12z m-553 -77 c2 -2 6 -31 10 -65 l6 -63
-54 7 c-59 8 -64 12 -80 68 -5 21 -13 45 -16 54 -5 13 3 14 63 8 38 -3 70 -8
71 -9z m153 -21 c12 -4 16 -18 15 -60 -1 -30 -4 -58 -8 -61 -3 -3 -28 -3 -56
1 l-50 7 -7 46 c-4 26 -8 55 -10 65 -3 16 3 17 49 12 29 -3 59 -8 67 -10z
m614 -27 c-3 -7 -20 -25 -38 -40 l-32 -27 4 29 c3 20 12 32 31 39 36 13 41 13
35 -1z m-299 -13 c33 -4 66 -8 73 -8 15 0 15 -15 1 -73 -14 -54 -25 -62 -49
-37 -10 11 -38 37 -63 57 -33 27 -44 42 -40 56 3 11 8 18 12 16 3 -2 33 -7 66
-11z m185 -68 c-17 -45 -27 -57 -52 -66 -17 -6 -33 -9 -36 -6 -3 2 2 28 10 56
13 48 17 53 54 64 21 6 40 11 42 10 1 -1 -7 -27 -18 -58z m-638 -35 c4 -4 10
-31 14 -60 l7 -53 -29 6 c-16 4 -37 9 -46 11 -13 4 -48 79 -48 104 0 9 92 1
102 -8z m115 -15 c32 -5 35 -11 38 -68 l2 -51 -45 6 c-25 3 -47 8 -49 10 -3 2
-8 29 -12 59 -7 55 -7 55 18 51 14 -2 36 -5 48 -7z m183 -129 c12 -11 20 -21
18 -23 -2 -1 -30 3 -63 9 -58 12 -60 14 -66 49 -3 20 -4 39 -1 42 5 5 78 -45
112 -77z m-288 1 c29 -6 60 -13 68 -16 8 -2 -14 -16 -50 -32 l-65 -27 -12 41
c-7 22 -13 41 -13 43 0 4 19 2 72 -9z m219 -44 c86 -17 119 -23 137 -24 14 -1
112 -89 112 -101 0 -4 -10 -11 -22 -17 -18 -7 -71 2 -233 42 -181 45 -207 54
-185 63 19 8 108 47 116 51 1 1 35 -6 75 -14z m506 -73 c19 -12 32 -56 22 -75
-20 -35 -75 -14 -92 35 -11 32 38 61 70 40z m-744 -33 c21 -30 17 -63 -10 -74
-25 -9 -67 27 -71 60 -6 51 46 60 81 14z m462 -104 c43 -42 26 -82 -32 -76
-22 2 -43 32 -43 61 0 45 38 53 75 15z"/>
<path d="M590 405 c0 -76 2 -85 18 -85 14 0 18 7 17 28 -1 15 0 33 3 40 5 14
31 16 33 2 1 -5 3 -19 4 -30 1 -11 3 -24 4 -30 0 -5 8 -10 16 -10 11 0 15 12
15 44 0 49 -16 69 -52 64 -20 -3 -23 1 -22 30 0 25 -4 32 -18 32 -16 0 -18 -9
-18 -85z"/>
<path d="M486 464 c-25 -25 -16 -57 22 -73 40 -18 36 -36 -7 -36 -43 0 -38
-29 6 -33 67 -7 93 69 32 90 -38 13 -39 41 -1 36 19 -2 27 2 27 12 0 22 -58
25 -79 4z"/>
<path d="M737 418 c-10 -7 -19 -23 -21 -34 -5 -25 27 -64 52 -64 28 0 62 29
62 54 0 45 -56 71 -93 44z m52 -60 c-8 -15 -13 -17 -25 -7 -17 14 -18 46 -1
52 20 8 38 -23 26 -45z"/>
<path d="M850 348 c0 -70 2 -79 18 -76 11 2 17 12 17 28 0 21 4 25 26 22 43
-5 70 48 43 86 -11 15 -25 20 -59 20 l-45 -1 0 -79z m80 27 c0 -7 -6 -18 -14
-24 -20 -17 -39 16 -24 42 7 15 12 16 24 6 8 -6 14 -17 14 -24z"/>
<path d="M989 421 c-1 -3 -2 -39 -3 -78 -1 -63 1 -73 16 -73 13 0 18 8 18 29
0 24 3 28 20 24 42 -11 75 47 50 87 -9 14 -99 25 -101 11z m74 -57 c-3 -8 -14
-14 -24 -14 -22 0 -26 29 -7 48 10 10 15 9 25 -4 6 -9 9 -22 6 -30z"/>
<path d="M1127 423 c-14 -13 -6 -24 12 -18 11 3 22 1 26 -5 3 -5 -2 -10 -12
-10 -24 0 -43 -19 -43 -41 0 -20 19 -27 68 -27 31 -1 32 1 32 38 0 22 -7 45
-16 54 -16 16 -55 22 -67 9z m47 -62 c3 -5 -1 -11 -9 -15 -9 -3 -15 0 -15 9 0
16 16 20 24 6z"/>
<path d="M1239 426 c-1 -1 -2 -25 -3 -53 -2 -45 0 -53 16 -53 14 0 18 8 18 34
0 37 17 57 30 35 5 -7 7 -25 5 -41 -3 -22 0 -28 16 -28 16 0 19 7 19 44 0 52
-12 65 -62 63 -21 0 -39 -1 -39 -1z"/>
<path d="M1376 411 c-34 -37 -6 -98 40 -87 18 5 22 3 18 -9 -6 -15 -16 -19
-46 -16 -10 1 -18 -4 -18 -11 0 -20 65 -22 84 -3 11 12 16 35 16 80 l0 63 -39
0 c-25 1 -45 -6 -55 -17z m59 -39 c3 -16 -1 -22 -15 -22 -23 0 -30 19 -18 44
11 21 26 11 33 -22z"/>
</g>
</svg>
