<svg id="Layer_1" data-name="Layer 1" xmlns="http://www.w3.org/2000/svg" viewBox="0 0 48 48"><defs><style>.cls-1{fill:none;stroke:#3fb139;stroke-linecap:round;stroke-linejoin:round;stroke-width:0.82px;}.cls-2{fill:#3fb139;}.cls-3{fill:#fff;}</style></defs><title>최종logo</title><polygon class="cls-1" points="17.4 11.38 9.48 13.44 12.93 25.15 27.05 27.91 33.93 25.15 38.06 13.44 17.4 11.38"/><line class="cls-1" x1="30.14" y1="16.2" x2="38.07" y2="13.44"/><polyline class="cls-1" points="27.05 27.91 30.14 16.2 9.48 13.44 7.76 7.93 15.34 6.21 17.4 11.38"/><line class="cls-1" x1="8.15" y1="8.78" x2="15.51" y2="7.07"/><polyline class="cls-1" points="12.88 25 13.79 28.43 26.01 31.35 32.55 28.25 27.18 27.91"/><line class="cls-1" x1="13.91" y1="28.45" x2="18.95" y2="26.33"/><ellipse class="cls-1" cx="13.96" cy="30.32" rx="1.55" ry="1.86" transform="translate(-16.66 17.03) rotate(-41.82)"/><ellipse class="cls-1" cx="25.67" cy="33.07" rx="1.55" ry="1.86" transform="translate(-15.51 25.54) rotate(-41.82)"/><ellipse class="cls-1" cx="32.9" cy="29.97" rx="1.55" ry="1.86" transform="translate(-11.61 29.57) rotate(-41.82)"/><line class="cls-1" x1="14.64" y1="14.13" x2="16.06" y2="25.77"/><line class="cls-1" x1="19.29" y1="14.75" x2="19.29" y2="26.4"/><line class="cls-1" x1="24.46" y1="15.44" x2="23.27" y2="27.17"/><line class="cls-1" x1="10.64" y1="17.39" x2="29.19" y2="19.81"/><line class="cls-1" x1="11.86" y1="21.52" x2="28.11" y2="23.9"/><line class="cls-1" x1="22.74" y1="11.91" x2="22.74" y2="15.21"/><line class="cls-1" x1="27.26" y1="12.36" x2="27.26" y2="15.81"/><line class="cls-1" x1="32.12" y1="12.85" x2="32.12" y2="15.34"/><line class="cls-1" x1="15.35" y1="11.91" x2="15.35" y2="13.96"/><line class="cls-1" x1="17.69" y1="11.41" x2="18.34" y2="14.63"/><line class="cls-1" x1="33.45" y1="15.05" x2="29.89" y2="26.77"/><line class="cls-1" x1="36.21" y1="14.09" x2="32.4" y2="25.77"/><line class="cls-1" x1="29.04" y1="20.38" x2="36.48" y2="17.93"/><line class="cls-1" x1="28" y1="24.32" x2="35.22" y2="21.52"/><path class="cls-2" d="M29,32.1a.29.29,0,0,1-.25-.15c-2.46-4.1-9.7-8.94-9.77-9a.3.3,0,0,1-.11-.38l1.57-3.66a.31.31,0,0,1,.28-.18h.08c2,.5,7,5.22,8.17,6.37C33.76,19,46.34,10.76,46.46,10.68a.28.28,0,0,1,.17,0,.3.3,0,0,1,.2.54C39,17.73,29.38,31.83,29.29,32a.33.33,0,0,1-.26.13Z"/><path class="cls-3" d="M46.63,10.94C38.67,17.59,29,31.79,29,31.79c-2.52-4.21-9.86-9.08-9.86-9.08l1.57-3.66c2.2.55,8.29,6.53,8.29,6.53,4.61-6.21,17.6-14.64,17.6-14.64m0-.62a.58.58,0,0,0-.33.1c-.52.34-12.41,8.09-17.34,14.24-1.58-1.52-6.08-5.71-8.07-6.21a.39.39,0,0,0-.15,0,.62.62,0,0,0-.57.37L18.6,22.46a.61.61,0,0,0,.23.76c.07.05,7.25,4.85,9.67,8.89a.61.61,0,0,0,.51.3h0a.61.61,0,0,0,.51-.27c.1-.14,9.68-14.2,17.49-20.73a.62.62,0,0,0,.1-.84.63.63,0,0,0-.5-.25Zm0,1.23h0Z"/><path class="cls-2" d="M12.42,37c-.38,0-.57.17-.58.4s.24.38.6.45l.34.09c.77.17,1.21.56,1.22,1.21s-.59,1.24-1.58,1.24S10.79,40,10.77,39h.9c0,.4.31.6.74.6s.63-.18.64-.44-.21-.36-.65-.46l-.42-.1c-.69-.16-1.1-.51-1.1-1.12,0-.76.64-1.26,1.55-1.26s1.5.51,1.51,1.26H13C13,37.19,12.81,37,12.42,37Z"/><path class="cls-2" d="M15.33,40.35H14.4V36.28h.9v1.58h0a.9.9,0,0,1,.89-.6,1,1,0,0,1,1,1.15v1.94h-.93V38.59c0-.35-.17-.55-.49-.55a.5.5,0,0,0-.51.56Z"/><path class="cls-2" d="M17.65,38.83a1.5,1.5,0,1,1,1.5,1.58A1.44,1.44,0,0,1,17.65,38.83Zm2.06,0c0-.51-.2-.87-.55-.87s-.56.36-.56.87.2.86.56.86S19.71,39.34,19.71,38.83Z"/><path class="cls-2" d="M21.06,37.3H22v.52h0a.85.85,0,0,1,.84-.56c.63,0,1.19.5,1.19,1.57s-.54,1.56-1.19,1.56a.85.85,0,0,1-.84-.53h0V41.5h-.92Zm1.47,2.35c.36,0,.56-.32.56-.83s-.2-.82-.56-.82-.57.32-.57.82S22.17,39.65,22.53,39.65Z"/><path class="cls-2" d="M24.45,37.3h.92v.52h0a.87.87,0,0,1,.84-.56c.63,0,1.19.5,1.19,1.57s-.53,1.56-1.19,1.56a.87.87,0,0,1-.84-.53h0V41.5h-.93Zm1.47,2.35c.37,0,.56-.32.56-.83s-.19-.82-.56-.82-.56.32-.56.82S25.57,39.65,25.92,39.65Z"/><path class="cls-2" d="M28.81,38.55l.72,0v-.24c0-.22-.15-.34-.41-.34a.4.4,0,0,0-.44.31h-.86c0-.53.49-1,1.32-1s1.32.36,1.32,1v2.07h-.88v-.43h0a.91.91,0,0,1-.87.49.87.87,0,0,1-1-.91C27.71,38.83,28.22,38.59,28.81,38.55ZM29,39.78a.51.51,0,0,0,.56-.51v-.2l-.56,0c-.23,0-.38.16-.38.36S28.75,39.78,29,39.78Z"/><path class="cls-2" d="M31.87,40.35H31V37.3h.88v.56h0a.92.92,0,0,1,.91-.6,1,1,0,0,1,1,1.15v1.94h-.93V38.59c0-.35-.18-.55-.48-.55a.51.51,0,0,0-.52.56Z"/><path class="cls-2" d="M34.28,40.58h.9c0,.22.24.31.53.31s.57-.14.57-.53v-.54h0a.86.86,0,0,1-.84.49c-.66,0-1.2-.47-1.2-1.49s.57-1.56,1.19-1.56a.88.88,0,0,1,.85.56h0V37.3h.92v3.07c0,.77-.61,1.19-1.5,1.19S34.32,41.16,34.28,40.58Zm2-1.76c0-.5-.21-.82-.57-.82s-.56.33-.56.82.2.79.56.79S36.28,39.32,36.28,38.82Z"/></svg>