<svg id="Layer_1" data-name="Layer 1" xmlns="http://www.w3.org/2000/svg" viewBox="0 0 173 48"><defs><style>.cls-1{fill:none;stroke:#3fb139;stroke-linecap:round;stroke-linejoin:round;stroke-width:0.77px;}.cls-2{fill:#3fb139;}.cls-3{fill:#fff;}</style></defs><title>최종logo</title><polygon class="cls-1" points="26.84 15.15 19.38 17.09 22.62 28.12 35.92 30.71 42.41 28.12 46.3 17.09 26.84 15.15"/><line class="cls-1" x1="38.84" y1="19.69" x2="46.3" y2="17.09"/><polyline class="cls-1" points="35.92 30.71 38.84 19.69 19.38 17.09 17.76 11.9 24.89 10.28 26.84 15.15"/><line class="cls-1" x1="18.13" y1="12.7" x2="25.06" y2="11.09"/><polyline class="cls-1" points="22.58 27.97 23.43 31.2 34.95 33.95 41.11 31.04 36.05 30.71"/><line class="cls-1" x1="23.55" y1="31.23" x2="28.3" y2="29.23"/><ellipse class="cls-1" cx="23.6" cy="32.98" rx="1.46" ry="1.76" transform="translate(-15.98 24.14) rotate(-41.82)"/><ellipse class="cls-1" cx="34.62" cy="35.58" rx="1.46" ry="1.76" transform="translate(-14.9 32.15) rotate(-41.82)"/><ellipse class="cls-1" cx="41.43" cy="32.66" rx="1.46" ry="1.76" transform="translate(-11.22 35.95) rotate(-41.82)"/><line class="cls-1" x1="24.23" y1="17.74" x2="25.58" y2="28.69"/><line class="cls-1" x1="28.62" y1="18.32" x2="28.62" y2="29.29"/><line class="cls-1" x1="33.48" y1="18.97" x2="32.37" y2="30.02"/><line class="cls-1" x1="20.47" y1="20.81" x2="37.94" y2="23.09"/><line class="cls-1" x1="21.62" y1="24.7" x2="36.92" y2="26.94"/><line class="cls-1" x1="31.87" y1="15.65" x2="31.87" y2="18.76"/><line class="cls-1" x1="36.12" y1="16.07" x2="36.12" y2="19.32"/><line class="cls-1" x1="40.69" y1="16.53" x2="40.69" y2="18.88"/><line class="cls-1" x1="24.91" y1="15.65" x2="24.91" y2="17.58"/><line class="cls-1" x1="27.11" y1="15.17" x2="27.73" y2="18.2"/><line class="cls-1" x1="41.95" y1="18.6" x2="38.59" y2="29.64"/><line class="cls-1" x1="44.55" y1="17.7" x2="40.96" y2="28.69"/><line class="cls-1" x1="37.79" y1="23.63" x2="44.81" y2="21.32"/><line class="cls-1" x1="36.81" y1="27.33" x2="43.61" y2="24.7"/><path class="cls-2" d="M37.78,34.66a.27.27,0,0,1-.24-.14c-2.31-3.86-9.13-8.42-9.2-8.46a.3.3,0,0,1-.1-.36l1.48-3.45a.27.27,0,0,1,.26-.17h.07c1.91.47,6.58,4.91,7.7,6,4.49-5.8,16.33-13.52,16.46-13.6a.27.27,0,0,1,.15-.05.3.3,0,0,1,.24.12.28.28,0,0,1-.05.39C47.17,21.13,38.12,34.4,38,34.54a.29.29,0,0,1-.24.12Z"/><path class="cls-3" d="M54.36,14.73C46.86,21,37.79,34.37,37.79,34.37c-2.37-4-9.29-8.56-9.29-8.56L30,22.37c2.08.52,7.81,6.15,7.81,6.15,4.34-5.85,16.57-13.79,16.57-13.79m0-.58a.56.56,0,0,0-.31.09c-.49.32-11.69,7.62-16.33,13.41-1.48-1.42-5.72-5.38-7.6-5.85H30a.56.56,0,0,0-.53.35L28,25.58a.6.6,0,0,0,.21.72c.07,0,6.83,4.56,9.11,8.37a.56.56,0,0,0,.48.28h0a.58.58,0,0,0,.48-.25c.09-.13,9.12-13.38,16.47-19.52a.59.59,0,0,0,.09-.79.57.57,0,0,0-.47-.24Zm0,1.16h0Z"/><path class="cls-2" d="M62.05,18.55c-1.38,0-2.08.61-2.1,1.44s.86,1.36,2.16,1.65l1.25.31c2.78.63,4.4,2,4.41,4.39,0,2.79-2.13,4.48-5.72,4.48s-5.93-1.67-6-5.05h3.27c.08,1.43,1.12,2.16,2.68,2.16s2.29-.65,2.31-1.59S63.56,25,62,24.67l-1.52-.36c-2.49-.59-4-1.86-4-4.07,0-2.73,2.35-4.56,5.63-4.56s5.47,1.85,5.51,4.58H64.3C64.22,19.18,63.44,18.55,62.05,18.55Z"/><path class="cls-2" d="M72.48,30.62H69.1V15.88h3.26v5.7h.12a3.24,3.24,0,0,1,3.25-2.16c2.27,0,3.77,1.63,3.77,4.15v7.05H76.13v-6.4a1.72,1.72,0,0,0-1.78-2,1.84,1.84,0,0,0-1.87,2.06Z"/><path class="cls-2" d="M80.79,25.12c0-3.4,2-5.7,5.45-5.7s5.45,2.3,5.45,5.7-2.06,5.7-5.45,5.7S80.79,28.52,80.79,25.12Zm7.46,0c0-1.85-.72-3.13-2-3.13s-2,1.28-2,3.13.72,3.13,2,3.13S88.25,27,88.25,25.1Z"/><path class="cls-2" d="M93,19.56h3.34v1.9h.11a3.15,3.15,0,0,1,3.06-2c2.29,0,4.33,1.79,4.33,5.68s-1.94,5.68-4.33,5.68a3.16,3.16,0,0,1-3.06-2h-.07v5.94H93Zm5.35,8.53c1.32,0,2-1.18,2-3s-.72-3-2-3-2,1.14-2,3S97.06,28.09,98.36,28.09Z"/><path class="cls-2" d="M105.22,19.56h3.33v1.9h.12a3.14,3.14,0,0,1,3-2c2.3,0,4.33,1.79,4.33,5.68s-1.93,5.68-4.33,5.68a3.15,3.15,0,0,1-3-2h-.08v5.94h-3.37Zm5.35,8.53c1.31,0,2-1.18,2-3s-.72-3-2-3-2.06,1.14-2.06,3S109.27,28.09,110.57,28.09Z"/><path class="cls-2" d="M120.93,24.08c.78,0,2.14-.1,2.6-.12v-.9c0-.77-.56-1.2-1.48-1.2a1.42,1.42,0,0,0-1.6,1.12h-3.13c.14-1.95,1.78-3.56,4.81-3.56,2.68,0,4.77,1.3,4.77,3.69v7.51h-3.17V29.07h-.08a3.31,3.31,0,0,1-3.16,1.75c-2.07,0-3.57-1.08-3.57-3.28C116.92,25.1,118.78,24.22,120.93,24.08Zm.58,4.46a1.88,1.88,0,0,0,2-1.85V26c-.41,0-1.56.07-2.06.12-.84.1-1.37.57-1.37,1.3S120.69,28.54,121.51,28.54Z"/><path class="cls-2" d="M131.92,30.62h-3.37V19.56h3.19v2h.12a3.32,3.32,0,0,1,3.29-2.16c2.28,0,3.78,1.65,3.76,4.15v7.05h-3.36v-6.4c0-1.24-.65-2-1.77-2a1.83,1.83,0,0,0-1.86,2.06Z"/><path class="cls-2" d="M140.51,31.45h3.28c.14.8.87,1.14,1.93,1.14,1.22,0,2.06-.51,2.06-2v-2h-.12a3.13,3.13,0,0,1-3.08,1.79c-2.39,0-4.35-1.69-4.35-5.41s2.06-5.64,4.33-5.64a3.16,3.16,0,0,1,3.08,2h.1v-1.9h3.35V30.68c0,2.81-2.21,4.31-5.45,4.31S140.67,33.55,140.51,31.45Zm7.27-6.39c0-1.81-.74-2.95-2.06-2.95s-2,1.18-2,2.95.73,2.89,2,2.89S147.78,26.87,147.78,25.06Z"/></svg>