<svg id="Layer_1" data-name="Layer 1" xmlns="http://www.w3.org/2000/svg" viewBox="0 0 48 48"><defs><style>.cls-1{fill:none;stroke:#3fb139;stroke-linecap:round;stroke-linejoin:round;stroke-width:0.82px;}.cls-2{fill:#3fb139;}.cls-3{fill:#fff;}</style></defs><title>최종logo</title><polygon class="cls-1" points="17.4 15.38 9.48 17.44 12.93 29.15 27.05 31.91 33.93 29.15 38.06 17.44 17.4 15.38"/><line class="cls-1" x1="30.14" y1="20.2" x2="38.07" y2="17.44"/><polyline class="cls-1" points="27.05 31.91 30.14 20.2 9.48 17.44 7.76 11.93 15.34 10.21 17.4 15.38"/><line class="cls-1" x1="8.15" y1="12.78" x2="15.51" y2="11.07"/><polyline class="cls-1" points="12.88 29 13.79 32.42 26.01 35.35 32.55 32.25 27.18 31.91"/><line class="cls-1" x1="13.91" y1="32.45" x2="18.95" y2="30.33"/><ellipse class="cls-1" cx="13.96" cy="34.32" rx="1.55" ry="1.86" transform="translate(-19.33 18.05) rotate(-41.82)"/><ellipse class="cls-1" cx="25.67" cy="37.07" rx="1.55" ry="1.86" transform="translate(-18.18 26.56) rotate(-41.82)"/><ellipse class="cls-1" cx="32.9" cy="33.97" rx="1.55" ry="1.86" transform="translate(-14.27 30.59) rotate(-41.82)"/><line class="cls-1" x1="14.64" y1="18.13" x2="16.06" y2="29.77"/><line class="cls-1" x1="19.29" y1="18.75" x2="19.29" y2="30.4"/><line class="cls-1" x1="24.46" y1="19.44" x2="23.27" y2="31.17"/><line class="cls-1" x1="10.64" y1="21.39" x2="29.19" y2="23.81"/><line class="cls-1" x1="11.86" y1="25.52" x2="28.11" y2="27.9"/><line class="cls-1" x1="22.74" y1="15.91" x2="22.74" y2="19.21"/><line class="cls-1" x1="27.26" y1="16.36" x2="27.26" y2="19.81"/><line class="cls-1" x1="32.12" y1="16.85" x2="32.12" y2="19.34"/><line class="cls-1" x1="15.35" y1="15.91" x2="15.35" y2="17.96"/><line class="cls-1" x1="17.69" y1="15.41" x2="18.34" y2="18.63"/><line class="cls-1" x1="33.45" y1="19.05" x2="29.89" y2="30.77"/><line class="cls-1" x1="36.21" y1="18.09" x2="32.4" y2="29.77"/><line class="cls-1" x1="29.04" y1="24.38" x2="36.48" y2="21.93"/><line class="cls-1" x1="28" y1="28.32" x2="35.22" y2="25.52"/><path class="cls-2" d="M29,36.1a.29.29,0,0,1-.25-.15c-2.46-4.1-9.7-8.94-9.77-9a.3.3,0,0,1-.11-.38l1.57-3.66a.31.31,0,0,1,.28-.18h.08c2,.5,7,5.22,8.17,6.37C33.76,23,46.34,14.76,46.46,14.68a.28.28,0,0,1,.17,0,.3.3,0,0,1,.2.54C39,21.73,29.38,35.83,29.29,36a.33.33,0,0,1-.26.13Z"/><path class="cls-3" d="M46.63,14.94C38.67,21.59,29,35.79,29,35.79c-2.52-4.21-9.86-9.08-9.86-9.08l1.57-3.66c2.2.55,8.29,6.53,8.29,6.53,4.61-6.21,17.6-14.64,17.6-14.64m0-.62a.58.58,0,0,0-.33.1c-.52.34-12.41,8.09-17.34,14.24-1.58-1.52-6.08-5.71-8.07-6.21a.39.39,0,0,0-.15,0,.62.62,0,0,0-.57.37L18.6,26.46a.61.61,0,0,0,.23.76c.07.05,7.25,4.85,9.67,8.89a.61.61,0,0,0,.51.3h0a.61.61,0,0,0,.51-.27c.1-.14,9.68-14.2,17.49-20.73a.62.62,0,0,0,.1-.84.63.63,0,0,0-.5-.25Zm0,1.23h0Z"/></svg>